<svg xmlns="http://www.w3.org/2000/svg" xmlns:xlink="http://www.w3.org/1999/xlink" width="1440px" height="179px" viewBox="0 0 1440 179" version="1.1">
    <!-- Generator: Sketch 51 (57462) - http://www.bohemiancoding.com/sketch -->
    <title>Split</title>
    <desc>Created with Sketch.</desc>
    <defs/>
    <g id="Web" stroke="none" stroke-width="1" fill="none" fill-rule="evenodd">
        <g id="Desktop-HD" transform="translate(0.000000, -712.000000)" fill-rule="nonzero">
            <g id="Banner">
                <g id="Split" transform="translate(0.000000, 712.000000)">
                    <path d="M1440,0.389343262 C1321.84513,5.39035034 1095.61588,26.6045532 761.312225,64.0319519 C427.008575,101.459351 173.237834,80.2451477 0,0.389343262 L0,57.5441589 C132.227468,109.173035 372.227468,116.784561 720,80.3787384 C1067.77253,43.9729156 1307.77253,36.3613892 1440,57.5441589 L1440,0.389343262 Z" id="Path-2" fill="#FDEBEB"/>
                    <path d="M1440,50.3358307 C1279.8065,36.8373159 1030.12186,47.5255737 690.946075,82.4006042 C351.770294,117.275635 121.454936,106.587377 0,50.3358307 L0,114.154816 C128.087524,138.399892 366.017553,132.319519 713.790085,95.9136963 C1061.56262,59.5078735 1303.63259,65.5882467 1440,114.154816 L1440,50.3358307 Z" id="Path-2-Copy" fill="#EEF4F8"/>
                    <path d="M1440,112.082031 C1343.28528,64.9456584 1095.31688,59.3126068 696.094818,95.1828766 C373.101791,124.203935 160.18022,130.467116 56.0634766,119.90332 C39.6818652,118.241225 20.9940397,115.634128 0,112.082031 L0,178.469074 C116.29068,172.328907 348.322286,151.055912 696.094818,114.650089 C1043.86735,78.2442666 1291.83574,99.5172616 1440,178.469074 L1440,112.082031 Z" id="Path-2-Copy-2" fill="#F7FAFC"/>
                </g>
            </g>
        </g>
    </g>
</svg>