<svg xmlns="http://www.w3.org/2000/svg" xmlns:xlink="http://www.w3.org/1999/xlink" width="1441px" height="384px" viewBox="0 0 1441 384" version="1.1">
    <!-- Generator: Sketch 48.2 (47327) - http://www.bohemiancoding.com/sketch -->
    <title>Group 4</title>
    <desc>Created with Sketch.</desc>
    <defs/>
    <g id="Page-1" stroke="none" stroke-width="1" fill="none" fill-rule="evenodd">
        <g id="Group-4" transform="translate(720.500000, 192.000000) rotate(180.000000) translate(-720.500000, -192.000000) ">
            <g id="Group" transform="translate(437.000000, 117.000000)">
                <path d="M0.79907036,103.660139 C215.874811,69.8847855 399.862371,63.2181189 552.761749,83.6601393 C705.661128,104.10216 855.57727,139.954267 1002.51018,191.21646 L1002.51018,111.4383 C876.228047,77.9693884 736.311904,55.2208158 582.761749,43.1925819 C429.211594,31.1643479 235.224035,51.3202004 0.79907036,103.660139 Z" id="Path" fill="#"/>
                <path d="M0.79907036,103.660139 C244.951485,56.2972183 435.605712,36.963885 572.761749,45.6601393 C709.917787,54.3563936 853.167263,78.2085005 1002.51018,117.21646 L1002.51018,37.4382995 C901.814701,12.6078211 768.565225,0.192581852 602.761749,0.192581852 C436.958274,0.192581852 236.304047,34.6817677 0.79907036,103.660139 Z" id="Path" fill="#FDEBEB"/>
                <path d="M0.79907036,103.660139 C139.208145,80.5514522 284.862371,79.2181189 437.761749,99.6601393 C590.661128,120.10216 778.910604,175.620933 1002.51018,266.21646 L1002.51018,186.4383 C799.56138,122.302722 621.311904,84.2208158 467.761749,72.1925819 C314.211594,60.1643479 158.557368,70.6535337 0.79907036,103.660139 Z" id="Path" fill="#FFFAFA"/>
            </g>
            <g id="Group-2" transform="translate(0.000000, 122.000000)">
                <path d="M0.460311551,203.594226 C135.779143,136.890421 259.061125,89.8165459 370.306258,62.3726025 C481.551391,34.9286591 622.673191,14.4506148 793.671659,0.938469613 C624.31022,6.56786622 483.18842,23.601878 370.306258,52.040505 C257.424097,80.479132 134.142114,130.997039 0.460311551,203.594226 Z" id="Path-2" fill="#FDEBEB"/>
                <path d="M0.460311551,203.594226 C128.62384,147.132895 251.905822,103.725687 370.306258,73.3726025 C488.706695,43.0195178 629.828495,18.8748068 793.671659,0.938469613 C624.31022,12.5678662 483.18842,32.601878 370.306258,61.040505 C257.424097,89.479132 134.142114,136.997039 0.460311551,203.594226 Z" id="Path-2" fill="#EEF4F8"/>
                <path d="M0.460311551,203.594226 C128.62384,154.466228 251.905822,114.725687 370.306258,84.3726025 C488.706695,54.0195178 629.828495,26.2081402 793.671659,0.938469613 C624.31022,19.9011996 483.18842,43.601878 370.306258,72.040505 C257.424097,100.479132 134.142114,144.330372 0.460311551,203.594226 Z" id="Path-2" fill="#F7FAFC"/>
            </g>
            <g id="Group-3" transform="translate(1163.000000, 0.000000)">
                <path d="M0.269911309,83.5434514 C60.4262168,70.3138657 104.499563,59.4800749 132.48995,51.0420792 C160.480337,42.6040834 208.662016,25.6266292 277.034986,0.109716553 L277.034986,18.9710601 C220.562279,35.0353584 178.075266,46.3923461 149.573946,53.0420231 C121.072627,59.6917001 71.3046151,69.8588429 0.269911309,83.5434514 Z" id="Path-3" fill="#FDEBEB"/>
                <path d="M0.269911309,83.5434514 C62.288091,71.3506584 108.694771,61.8502009 139.48995,55.0420792 C170.28513,48.2339574 216.133475,36.2565032 277.034986,19.1097166 L277.034986,37.9710601 C220.570815,48.8747427 178.083802,56.5650637 149.573946,61.0420231 C121.064091,65.5189825 71.2960791,73.0194586 0.269911309,83.5434514 Z" id="Path-3" fill="#EEF4F8"/>
                <path d="M0.269911309,83.5434514 C62.3544299,73.9232159 108.76111,66.7560918 139.48995,62.0420792 C170.218791,57.3280665 216.067136,49.0172789 277.034986,37.1097166 L277.034986,55.9710601 C220.799119,61.707651 178.312106,66.0646387 149.573946,69.0420231 C120.835787,72.0194075 71.067775,76.853217 0.269911309,83.5434514 Z" id="Path-3" fill="#F7FAFC"/>
            </g>
        </g>
    </g>
</svg>