<svg xmlns="http://www.w3.org/2000/svg" xmlns:xlink="http://www.w3.org/1999/xlink" width="1440px" height="288px" viewBox="0 0 1440 288" version="1.1">
    <!-- Generator: Sketch 48.2 (47327) - http://www.bohemiancoding.com/sketch -->
    <title>wave-banner</title>
    <desc>Created with Sketch.</desc>
    <defs/>
    <g id="Page-1" stroke="none" stroke-width="1" fill="none" fill-rule="evenodd">
        <g id="wave-banner" fill-rule="nonzero">
            <path d="M1440,87.082031 C1243.7526,41.0515146 1006.29903,83.8132794 696.094818,127.182877 C336.419123,177.469074 117.807269,159.650089 0,94.082031 L0,190.469074 C180.952831,231.18738 371.284458,214.384306 696.094818,169.650089 C1020.90518,124.915872 1245.70821,110.940647 1440,198.469074 L1440,87.082031 Z" id="Path-2-Copy-2" fill="#FDEBEB"/>
            <path d="M1440,2.082031 C1316.81295,-11.063516 1006.29903,67.8132794 696.094818,111.182877 C336.419123,161.469074 95.3733921,88.8348098 0,3.082031 L0,96.469074 C138.597162,169.949732 371.284458,180.384306 696.094818,135.650089 C1020.90518,90.9158723 1283.58664,46.8225651 1440,96.469074 L1440,2.082031 Z" id="Path-2-Copy-2" fill="#FFFAFA"/>
            <path d="M1440,190.082031 C1252.1347,98.1645045 996.231018,115.97894 696.094818,160.182877 C306.115105,217.618929 150.152755,220.082031 0,191.082031 L0,287.469074 C186.953217,287.469074 371.284458,227.384306 696.094818,182.650089 C1020.90518,137.915872 1279.30338,151.35076 1440,284.469074 L1440,190.082031 Z" id="Path-2-Copy-2" fill="#DE93C1"/>
        </g>
    </g>
</svg>